<svg xmlns="http://www.w3.org/2000/svg" version="1.1" xmlns:xlink="http://www.w3.org/1999/xlink" xmlns:svgjs="http://svgjs.dev/svgjs" width="2000" height="1500" viewBox="0 0 2000 1500"><rect width="2000" height="1500" fill="#bb84e8"></rect><g transform="matrix(0.75,0,0,0.75,249.090909090909,282.7536437246964)"><svg viewBox="0 0 396 247" data-background-color="#bb84e8" preserveAspectRatio="xMidYMid meet" height="1247" width="2000" xmlns="http://www.w3.org/2000/svg" xmlns:xlink="http://www.w3.org/1999/xlink"><g id="tight-bounds" transform="matrix(1,0,0,1,0.2400000000000091,-0.09999999999999432)"><svg viewBox="0 0 395.52 247.2" height="247.2" width="395.52"><g><svg></svg></g><g><svg viewBox="0 0 395.52 247.2" height="247.2" width="395.52"><g transform="matrix(1,0,0,1,75.54432,103.77463095175342)"><svg viewBox="0 0 244.43135999999998 39.650738096493136" height="39.650738096493136" width="244.43135999999998"><g><svg viewBox="0 0 301.73967566151714 48.947078038495555" height="39.650738096493136" width="244.43135999999998"><g transform="matrix(1,0,0,1,0,6.7647553584317315)"><svg viewBox="0 0 244.43135999999998 35.41756732163209" height="35.41756732163209" width="244.43135999999998"><g id="textblocktransform"><svg viewBox="0 0 244.43135999999998 35.41756732163209" height="35.41756732163209" width="244.43135999999998" id="textblock"><g><svg viewBox="0 0 244.43135999999998 35.41756732163209" height="35.41756732163209" width="244.43135999999998"><g transform="matrix(1,0,0,1,0,0)"><svg width="244.43135999999998" viewBox="1.34 -36.55 321.29 46.559999999999995" height="35.41756732163209" data-palette-color="#7a26c1"><path d="M27.49-9.69L31.2-3.59Q28.76-1.49 25.73-0.37 22.71 0.76 19.46 0.76L19.46 0.76Q16.97 0.76 14.66 0.11 12.35-0.54 10.34-1.72 8.33-2.91 6.67-4.57 5-6.23 3.82-8.24 2.64-10.25 1.99-12.56 1.34-14.87 1.34-17.36L1.34-17.36Q1.34-19.85 1.99-22.17 2.64-24.49 3.82-26.5 5-28.52 6.67-30.18 8.33-31.84 10.34-33.02 12.35-34.2 14.66-34.85 16.97-35.5 19.46-35.5L19.46-35.5Q22.71-35.5 25.73-34.39 28.76-33.28 31.2-31.15L31.2-31.15 27.49-25.05Q25.95-26.71 23.85-27.6 21.75-28.49 19.46-28.49L19.46-28.49Q17.14-28.49 15.11-27.61 13.09-26.73 11.57-25.23 10.06-23.73 9.18-21.69 8.3-19.65 8.3-17.36L8.3-17.36Q8.3-15.06 9.18-13.05 10.06-11.04 11.57-9.52 13.09-8.01 15.11-7.13 17.14-6.25 19.46-6.25L19.46-6.25Q21.75-6.25 23.85-7.14 25.95-8.03 27.49-9.69L27.49-9.69ZM41.21-14.4L41.21 0 34.54 0 34.54-26.15 36.15-26.15 38.35-23.05Q39.96-24.51 42.01-25.31 44.06-26.1 46.26-26.1L46.26-26.1 52.15-26.1 52.15-19.46 46.26-19.46Q45.21-19.46 44.28-19.07 43.36-18.68 42.67-17.99 41.99-17.31 41.6-16.38 41.21-15.45 41.21-14.4L41.21-14.4ZM77.66-21.46L65.16-6.4Q65.55-6.27 65.94-6.24 66.33-6.2 66.72-6.2L66.72-6.2Q67.7-6.2 68.6-6.47 69.5-6.74 70.3-7.24 71.09-7.74 71.71-8.46 72.33-9.18 72.72-10.06L72.72-10.06 77.61-5.15Q76.68-3.83 75.47-2.78 74.26-1.73 72.86-1 71.45-0.27 69.9 0.11 68.35 0.49 66.72 0.49L66.72 0.49Q63.96 0.49 61.53-0.54 59.1-1.56 57.28-3.39 55.46-5.22 54.41-7.75 53.36-10.28 53.36-13.31L53.36-13.31Q53.36-16.41 54.41-18.97 55.46-21.53 57.28-23.34 59.1-25.15 61.53-26.15 63.96-27.15 66.72-27.15L66.72-27.15Q68.35-27.15 69.92-26.76 71.48-26.37 72.88-25.63 74.29-24.9 75.51-23.84 76.73-22.78 77.66-21.46L77.66-21.46ZM60.81-9.84L68.57-20.14Q68.11-20.31 67.66-20.36 67.21-20.41 66.72-20.41L66.72-20.41Q65.35-20.41 64.14-19.91 62.93-19.41 62.04-18.48 61.15-17.55 60.64-16.25 60.13-14.94 60.13-13.31L60.13-13.31Q60.13-12.94 60.16-12.48 60.2-12.01 60.29-11.54 60.37-11.06 60.49-10.62 60.62-10.18 60.81-9.84L60.81-9.84ZM106.12-26.1L106.12 0 104.51 0 101.92-3.59Q100.97-2.73 99.91-1.99 98.85-1.25 97.67-0.7 96.5-0.15 95.27 0.17 94.04 0.49 92.77 0.49L92.77 0.49Q90.01 0.49 87.58-0.44 85.15-1.37 83.33-3.14 81.51-4.91 80.46-7.47 79.41-10.03 79.41-13.31L79.41-13.31Q79.41-16.36 80.46-18.91 81.51-21.46 83.33-23.29 85.15-25.12 87.58-26.14 90.01-27.15 92.77-27.15L92.77-27.15Q94.04-27.15 95.28-26.83 96.53-26.51 97.7-25.95 98.87-25.39 99.93-24.63 100.99-23.88 101.92-23L101.92-23 104.51-26.1 106.12-26.1ZM99.41-13.31L99.41-13.31Q99.41-14.67 98.88-15.95 98.36-17.24 97.45-18.23 96.55-19.21 95.34-19.81 94.13-20.41 92.77-20.41L92.77-20.41Q91.4-20.41 90.19-19.95 88.98-19.48 88.09-18.58 87.2-17.68 86.69-16.35 86.17-15.01 86.17-13.31L86.17-13.31Q86.17-11.6 86.69-10.27 87.2-8.94 88.09-8.03 88.98-7.13 90.19-6.67 91.4-6.2 92.77-6.2L92.77-6.2Q94.13-6.2 95.34-6.8 96.55-7.4 97.45-8.39 98.36-9.38 98.88-10.66 99.41-11.94 99.41-13.31ZM129.36 0L124.31 0Q121.89 0 119.77-0.92 117.64-1.83 116.04-3.43 114.44-5.03 113.53-7.15 112.61-9.28 112.61-11.69L112.61-11.69 112.61-19.46 109.37-19.46 109.37-26.1 112.61-26.1 112.61-36.55 119.25-36.55 119.25-26.1 129.36-26.1 129.36-19.46 119.25-19.46 119.25-11.69Q119.25-10.64 119.64-9.73 120.03-8.81 120.72-8.13 121.4-7.45 122.33-7.04 123.26-6.64 124.31-6.64L124.31-6.64 129.36-6.64 129.36 0ZM155.99-21.46L143.49-6.4Q143.88-6.27 144.27-6.24 144.67-6.2 145.06-6.2L145.06-6.2Q146.03-6.2 146.94-6.47 147.84-6.74 148.63-7.24 149.43-7.74 150.05-8.46 150.67-9.18 151.06-10.06L151.06-10.06 155.94-5.15Q155.02-3.83 153.81-2.78 152.6-1.73 151.2-1 149.79-0.27 148.24 0.11 146.69 0.49 145.06 0.49L145.06 0.49Q142.3 0.49 139.87-0.54 137.44-1.56 135.62-3.39 133.8-5.22 132.75-7.75 131.7-10.28 131.7-13.31L131.7-13.31Q131.7-16.41 132.75-18.97 133.8-21.53 135.62-23.34 137.44-25.15 139.87-26.15 142.3-27.15 145.06-27.15L145.06-27.15Q146.69-27.15 148.25-26.76 149.82-26.37 151.22-25.63 152.62-24.9 153.84-23.84 155.07-22.78 155.99-21.46L155.99-21.46ZM139.15-9.84L146.91-20.14Q146.45-20.31 146-20.36 145.54-20.41 145.06-20.41L145.06-20.41Q143.69-20.41 142.48-19.91 141.27-19.41 140.38-18.48 139.49-17.55 138.98-16.25 138.46-14.94 138.46-13.31L138.46-13.31Q138.46-12.94 138.5-12.48 138.54-12.01 138.62-11.54 138.71-11.06 138.83-10.62 138.95-10.18 139.15-9.84L139.15-9.84ZM184.41-36.55L184.41 0 182.8 0 180.21-3.59Q179.26-2.73 178.2-1.99 177.13-1.25 175.96-0.7 174.79-0.15 173.56 0.17 172.32 0.49 171.05 0.49L171.05 0.49Q168.3 0.49 165.87-0.55 163.44-1.59 161.62-3.43 159.8-5.27 158.75-7.8 157.7-10.33 157.7-13.31L157.7-13.31Q157.7-16.26 158.75-18.8 159.8-21.34 161.62-23.19 163.44-25.05 165.87-26.1 168.3-27.15 171.05-27.15L171.05-27.15Q171.93-27.15 172.87-27 173.81-26.86 174.7-26.53 175.6-26.2 176.38-25.66 177.16-25.12 177.69-24.34L177.69-24.34 177.69-36.55 184.41-36.55ZM177.69-13.31L177.69-13.31Q177.69-14.67 177.17-15.95 176.65-17.24 175.74-18.23 174.84-19.21 173.63-19.81 172.42-20.41 171.05-20.41L171.05-20.41Q169.69-20.41 168.48-19.92 167.27-19.43 166.38-18.52 165.49-17.6 164.98-16.28 164.46-14.97 164.46-13.31L164.46-13.31Q164.46-11.87 164.98-10.57 165.49-9.28 166.38-8.3 167.27-7.32 168.48-6.76 169.69-6.2 171.05-6.2L171.05-6.2Q172.42-6.2 173.63-6.8 174.84-7.4 175.74-8.39 176.65-9.38 177.17-10.66 177.69-11.94 177.69-13.31ZM215.66-13.31L215.66-13.31Q215.66-10.23 214.61-7.69 213.56-5.15 211.75-3.33 209.94-1.51 207.51-0.51 205.09 0.49 202.3 0.49L202.3 0.49Q199.54 0.49 197.11-0.54 194.68-1.56 192.87-3.39 191.05-5.22 190-7.75 188.95-10.28 188.95-13.31L188.95-13.31 188.95-36.55 195.64-36.55 195.64-24.34Q196.17-25.02 196.94-25.56 197.71-26.1 198.6-26.44 199.49-26.78 200.45-26.97 201.4-27.15 202.3-27.15L202.3-27.15Q205.09-27.15 207.51-26.11 209.94-25.07 211.75-23.22 213.56-21.36 214.61-18.84 215.66-16.31 215.66-13.31ZM208.94-13.31L208.94-13.31Q208.94-14.82 208.42-16.13 207.89-17.43 206.99-18.38 206.09-19.34 204.88-19.87 203.67-20.41 202.3-20.41L202.3-20.41Q200.93-20.41 199.73-19.81 198.52-19.21 197.61-18.23 196.71-17.24 196.2-15.95 195.69-14.67 195.69-13.31L195.69-13.31Q195.69-11.79 196.2-10.5 196.71-9.2 197.61-8.25 198.52-7.3 199.73-6.75 200.93-6.2 202.3-6.2L202.3-6.2Q203.67-6.2 204.88-6.75 206.09-7.3 206.99-8.25 207.89-9.2 208.42-10.5 208.94-11.79 208.94-13.31ZM229.06 10.01L225.64 9.96 225.64 3.25 229.35 3.3Q230.33 3.3 231.23 2.98 232.13 2.66 232.9 2.1 233.67 1.54 234.26 0.77 234.84 0 235.21-0.9L235.21-0.9Q234.11-0.44 232.98 0.02 231.84 0.49 230.69 0.49L230.69 0.49Q228.28 0.49 226.15-0.37 224.03-1.22 222.43-2.8 220.83-4.37 219.91-6.63 219-8.89 219-11.69L219-11.69 219-26.15 225.64-26.15 225.64-11.69Q225.64-10.3 226.04-9.27 226.44-8.23 227.13-7.53 227.81-6.84 228.73-6.49 229.64-6.15 230.69-6.15L230.69-6.15Q231.72-6.15 232.63-6.63 233.55-7.1 234.23-7.89 234.92-8.67 235.31-9.66 235.7-10.64 235.7-11.69L235.7-11.69 235.7-26.15 242.41-26.15 242.41-3.3Q242.39-0.54 241.34 1.88 240.29 4.3 238.47 6.1 236.65 7.91 234.23 8.96 231.82 10.01 229.06 10.01L229.06 10.01ZM270.39-21.46L257.89-6.4Q258.28-6.27 258.67-6.24 259.06-6.2 259.45-6.2L259.45-6.2Q260.43-6.2 261.33-6.47 262.23-6.74 263.03-7.24 263.82-7.74 264.44-8.46 265.07-9.18 265.46-10.06L265.46-10.06 270.34-5.15Q269.41-3.83 268.2-2.78 266.99-1.73 265.59-1 264.19-0.27 262.64 0.11 261.09 0.49 259.45 0.49L259.45 0.49Q256.69 0.49 254.26-0.54 251.83-1.56 250.01-3.39 248.2-5.22 247.15-7.75 246.1-10.28 246.1-13.31L246.1-13.31Q246.1-16.41 247.15-18.97 248.2-21.53 250.01-23.34 251.83-25.15 254.26-26.15 256.69-27.15 259.45-27.15L259.45-27.15Q261.09-27.15 262.65-26.76 264.21-26.37 265.61-25.63 267.02-24.9 268.24-23.84 269.46-22.78 270.39-21.46L270.39-21.46ZM253.54-9.84L261.31-20.14Q260.84-20.31 260.39-20.36 259.94-20.41 259.45-20.41L259.45-20.41Q258.08-20.41 256.87-19.91 255.67-19.41 254.77-18.48 253.88-17.55 253.37-16.25 252.86-14.94 252.86-13.31L252.86-13.31Q252.86-12.94 252.89-12.48 252.93-12.01 253.02-11.54 253.1-11.06 253.22-10.62 253.35-10.18 253.54-9.84L253.54-9.84ZM280.44-36.55L280.44 0 273.73 0 273.73-36.55 280.44-36.55ZM292.23-36.55L292.23 0 285.52 0 285.52-36.55 292.23-36.55ZM322.63-26.1L322.63 0 321.01 0 318.43-3.59Q317.47-2.73 316.41-1.99 315.35-1.25 314.18-0.7 313.01-0.15 311.77 0.17 310.54 0.49 309.27 0.49L309.27 0.49Q306.51 0.49 304.08-0.44 301.65-1.37 299.84-3.14 298.02-4.91 296.97-7.47 295.92-10.03 295.92-13.31L295.92-13.31Q295.92-16.36 296.97-18.91 298.02-21.46 299.84-23.29 301.65-25.12 304.08-26.14 306.51-27.15 309.27-27.15L309.27-27.15Q310.54-27.15 311.79-26.83 313.03-26.51 314.2-25.95 315.38-25.39 316.44-24.63 317.5-23.88 318.43-23L318.43-23 321.01-26.1 322.63-26.1ZM315.91-13.31L315.91-13.31Q315.91-14.67 315.39-15.95 314.86-17.24 313.96-18.23 313.06-19.21 311.85-19.81 310.64-20.41 309.27-20.41L309.27-20.41Q307.9-20.41 306.7-19.95 305.49-19.48 304.6-18.58 303.71-17.68 303.19-16.35 302.68-15.01 302.68-13.31L302.68-13.31Q302.68-11.6 303.19-10.27 303.71-8.94 304.6-8.03 305.49-7.13 306.7-6.67 307.9-6.2 309.27-6.2L309.27-6.2Q310.64-6.2 311.85-6.8 313.06-7.4 313.96-8.39 314.86-9.38 315.39-10.66 315.91-11.94 315.91-13.31Z" opacity="1" transform="matrix(1,0,0,1,0,0)" fill="#7a26c1" class="undefined-text-0" data-fill-palette-color="primary" id="text-0"></path></svg></g></svg></g></svg></g></svg></g><g transform="matrix(1,0,0,1,252.7925976230216,0)"><svg viewBox="0 0 48.947078038495555 48.947078038495555" height="48.947078038495555" width="48.947078038495555"><g data-palette-color="#a437db"><rect width="13.378867997188784" height="48.947078038495555" fill="#a437db" stroke="transparent" data-fill-palette-color="accent" x="0" fill-opacity="1"></rect><rect width="13.378867997188784" height="48.947078038495555" fill="#a437db" stroke="transparent" data-fill-palette-color="accent" x="16.315692679498518" fill-opacity="0.75"></rect><rect width="13.378867997188784" height="48.947078038495555" fill="#a437db" stroke="transparent" data-fill-palette-color="accent" x="32.631385358997036" fill-opacity="0.5"></rect></g></svg></g></svg></g></svg></g><g><path d="M245.816 0c68.262 0 123.6 55.338 123.6 123.6 0 68.262-55.338 123.6-123.6 123.6-60.328 0-110.562-43.221-121.424-100.388l1.317 0c10.845 56.448 60.495 99.094 120.107 99.094 67.548 0 122.306-54.758 122.306-122.306 0-67.548-54.758-122.306-122.306-122.306-59.611 0-109.262 42.647-120.107 99.094l-1.317 0c10.862-57.167 61.096-100.388 121.424-100.388z" fill="#7a26c1" stroke="transparent" data-fill-palette-color="tertiary"></path></g></svg></g><defs></defs></svg><rect width="395.52" height="247.2" fill="none" stroke="none" visibility="hidden"></rect></g></svg></g></svg>