<svg xmlns="http://www.w3.org/2000/svg" version="1.1" xmlns:xlink="http://www.w3.org/1999/xlink" xmlns:svgjs="http://svgjs.dev/svgjs" width="1000" height="1000" viewBox="0 0 1000 1000"><rect width="1000" height="1000" fill="#bb84e8"></rect><g transform="matrix(0.7,0,0,0.7,149.57575769379275,423.9747244131964)"><svg viewBox="0 0 396 86" data-background-color="#bb84e8" preserveAspectRatio="xMidYMid meet" height="217" width="1000" xmlns="http://www.w3.org/2000/svg" xmlns:xlink="http://www.w3.org/1999/xlink"><g id="tight-bounds" transform="matrix(1,0,0,1,0.2400000667742006,0.04261817291055081)"><svg viewBox="0 0 395.52 85.91476365417888" height="85.91476365417888" width="395.52"><g><svg viewBox="0 0 530.4192357894417 115.217544701861" height="85.91476365417888" width="395.52"><g transform="matrix(1,0,0,1,0,15.923698290922907)"><svg viewBox="0 0 395.52 83.37014812001519" height="83.37014812001519" width="395.52"><g id="textblocktransform"><svg viewBox="0 0 395.52 83.37014812001519" height="83.37014812001519" width="395.52" id="textblock"><g><svg viewBox="0 0 395.52 83.37014812001519" height="83.37014812001519" width="395.52"><g transform="matrix(1,0,0,1,0,0)"><svg width="395.52" viewBox="2.4000000953674316 -30.959999084472656 210.61001586914062 44.39999771118164" height="83.37014812001519" data-palette-color="#7a26c1"><path d="M23.16-20.56L23.16-20.56Q23.16-20.4 22.82-20.36 22.48-20.32 22.14-20.48 21.8-20.64 21.8-20.92L21.8-20.92Q21.8-25 22.72-27.5 23.64-30 25.12-30L25.12-30Q25.52-30 25.8-29.72 26.08-29.44 26.08-28.96L26.08-28.96Q24.24-27.12 23.48-23.6L23.48-23.6Q23.16-22.16 23.16-20.56ZM20.76-29.04L20.76-29.04Q15.24-29.04 10.88-22.6L10.88-22.6Q7.12-17.04 5.96-9.64L5.96-9.64Q5.56-7.2 5.56-5.16L5.56-5.16Q5.56-1.24 7 1.14 8.44 3.52 11.04 3.52L11.04 3.52Q14.56 3.52 17.04-0.52L17.04-0.52Q18.72-3.24 18.72-5.32L18.72-5.32Q18.72-6.24 18.24-6.24L18.24-6.24Q18.48-7.16 19.44-7.16L19.44-7.16Q20.56-7.16 20.56-5.56L20.56-5.56Q20.56-2.56 17.92 0.84L17.92 0.84Q14.76 4.88 10.52 4.88L10.52 4.88Q5.2 4.88 3.32-0.44L3.32-0.44Q2.4-2.92 2.4-6.06 2.4-9.2 3.44-13.08L3.44-13.08Q5.44-20.76 10.18-25.84 14.92-30.92 20.68-30.96L20.68-30.96Q21.48-30.96 21.84-30.44 22.2-29.92 22.16-29.44L22.16-29.44 22.16-28.92Q21.84-29.04 20.76-29.04ZM36.92-11.48L36.92-11.48Q35.4-11.48 35.4-14.8L35.4-14.8Q35.4-16.68 36.12-18.32L36.12-18.32Q33.4-15.96 30.04-9.54 26.68-3.12 26.68-1.16L26.68-1.16Q26.68-0.68 26.04-0.68L26.04-0.68Q24.88-0.68 24.88-3.84L24.88-3.84Q24.88-9.8 26.08-14.64 27.28-19.48 29-19.48L29-19.48Q29.76-19.48 29.76-18.6L29.76-18.6Q27.92-12.76 27.12-6.64L27.12-6.64 27.4-6.64Q30.64-14.12 34.56-18.32L34.56-18.32Q36.8-20.72 38.64-20.72L38.64-20.72Q39.04-20.72 39.3-20.48 39.56-20.24 39.56-19.88L39.56-19.88Q39.28-19.6 38.88-19.04 38.48-18.48 37.8-16.38 37.12-14.28 37.12-11.8L37.12-11.8Q37.12-11.48 36.92-11.48ZM49.95-19.4L49.95-19.4Q53-19.4 53-15.84L53-15.84Q53-13.8 51.64-11.56L51.64-11.56Q49.31-7.84 45.48-7.84L45.48-7.84Q44.88-7.84 44.48-8.04 44.08-8.24 43.88-8.64L43.88-8.64Q46.72-8.64 49.08-11.92L49.08-11.92Q51-14.56 51-16.76L51-16.76Q51-18.4 49.67-18.4L49.67-18.4Q47.04-18.4 44.76-14.28L44.76-14.28Q42.31-9.8 42.31-5.08L42.31-5.08Q42.31-1.08 44.59-0.28L44.59-0.28Q45.04-0.12 45.72-0.12 46.4-0.12 47.16-0.46 47.91-0.8 48.44-1.28L48.44-1.28Q49.48-2.24 50.16-3.4L50.16-3.4Q50.31-3.72 50.76-3.72L50.76-3.72Q51.48-3.72 51.44-3.48L51.44-3.48Q51.31-3.04 50.53-2 49.76-0.96 49.09-0.34 48.44 0.28 47.38 0.78 46.31 1.28 45.23 1.28L45.23 1.28Q40.99 1.28 39.84-2.72L39.84-2.72Q39.48-4.08 39.48-5.52L39.48-5.52Q39.48-8.2 40.72-11.36L40.72-11.36Q42.67-16.16 46.12-18.28L46.12-18.28Q48-19.4 49.95-19.4ZM58.43 0L58.43 0Q55.15 0 55.15-5.16L55.15-5.16Q55.15-8.24 56.67-11.92L56.67-11.92Q58.79-17.08 62.23-18.96L62.23-18.96Q63.71-19.76 64.99-19.76 66.27-19.76 67.01-19.2 67.75-18.64 67.95-18.08L67.95-18.08 68.19-17.56Q68.07-16.88 67.51-16.88L67.51-16.88Q66.87-16.88 66.77-17.18 66.67-17.48 66.55-17.7 66.43-17.92 65.99-18.3 65.55-18.68 64.99-18.68L64.99-18.68Q62.39-18.68 60.27-14L60.27-14Q57.87-8.6 57.87-3.84L57.87-3.84Q57.87-1.44 58.83-1.44L58.83-1.44Q59.59-1.44 60.97-3.14 62.35-4.84 63.87-7.4L63.87-7.4Q66.51-11.8 68.15-15.04L68.15-15.04Q69.51-17.92 70.95-17.92L70.95-17.92Q71.71-17.92 71.71-17L71.71-17Q71.35-16.24 70.79-14.84 70.23-13.44 69.31-9.28 68.39-5.12 68.39-1 68.39 3.12 69.63 3.12L69.63 3.12Q70.11 3.12 70.51 2.7 70.91 2.28 71.23 1.44L71.23 1.44Q71.35 1 71.79 1L71.79 1Q71.95 1 72.03 1.12 72.11 1.24 72.03 1.52 71.95 1.8 71.75 2.3 71.55 2.8 70.89 3.64 70.23 4.48 69.51 4.48L69.51 4.48Q67.83 4.48 66.93 2.28 66.03 0.08 66.03-2.92 66.03-5.92 66.47-8.68L66.47-8.68 66.07-8.68Q60.99 0 58.43 0ZM76.55-17.32L76.55-17.32Q74.99-17.32 74.99-18.6L74.99-18.6Q74.99-19.08 75.39-19.2L75.39-19.2Q75.43-19.24 75.51-19.24L75.51-19.24Q75.75-18.96 76.41-18.96 77.07-18.96 78.51-19.04L78.51-19.04Q80.39-24.12 82.11-24.12L82.11-24.12Q82.79-24.12 82.79-23.36L82.79-23.36Q82.15-21.76 81.35-19.24L81.35-19.24Q85.31-19.68 86.51-19.68L86.51-19.68Q86.83-19.68 86.83-19.36L86.83-19.36Q86.83-18.72 85.99-18.72L85.99-18.72Q85.55-18.72 80.91-17.88L80.91-17.88Q77.75-7.88 77.75-1.68 77.75 4.52 80.23 4.52L80.23 4.52Q81.23 4.52 82.11 3.66 82.99 2.8 83.35 1.96L83.35 1.96Q83.51 1.52 84.03 1.72L84.03 1.72Q84.27 1.8 84.19 1.96L84.19 1.96Q83.95 2.48 83.59 3.16 83.23 3.84 82.19 4.84 81.15 5.84 80.07 5.84L80.07 5.84Q75.31 5.84 75.31-2.44L75.31-2.44Q75.31-9.44 77.91-17.4L77.91-17.4Q77.35-17.32 76.55-17.32ZM96.19-19.4L96.19-19.4Q99.23-19.4 99.23-15.84L99.23-15.84Q99.23-13.8 97.87-11.56L97.87-11.56Q95.55-7.84 91.71-7.84L91.71-7.84Q91.11-7.84 90.71-8.04 90.31-8.24 90.11-8.64L90.11-8.64Q92.95-8.64 95.31-11.92L95.31-11.92Q97.23-14.56 97.23-16.76L97.23-16.76Q97.23-18.4 95.91-18.4L95.91-18.4Q93.27-18.4 90.99-14.28L90.99-14.28Q88.55-9.8 88.55-5.08L88.55-5.08Q88.55-1.08 90.83-0.28L90.83-0.28Q91.27-0.12 91.95-0.12 92.63-0.12 93.39-0.46 94.15-0.8 94.67-1.28L94.67-1.28Q95.71-2.24 96.39-3.4L96.39-3.4Q96.55-3.72 96.99-3.72L96.99-3.72Q97.71-3.72 97.67-3.48L97.67-3.48Q97.55-3.04 96.77-2 95.99-0.96 95.33-0.34 94.67 0.28 93.61 0.78 92.55 1.28 91.47 1.28L91.47 1.28Q87.23 1.28 86.07-2.72L86.07-2.72Q85.71-4.08 85.71-5.52L85.71-5.52Q85.71-8.2 86.95-11.36L86.95-11.36Q88.91-16.16 92.35-18.28L92.35-18.28Q94.23-19.4 96.19-19.4ZM104.67 0L104.67 0Q101.31 0 101.31-5.16L101.31-5.16Q101.31-8.16 102.83-11.76L102.83-11.76Q104.91-16.8 108.31-18.6L108.31-18.6Q109.79-19.4 110.99-19.4 112.19-19.4 112.83-18.98 113.47-18.56 113.67-18.12L113.67-18.12 113.87-17.68Q113.75-17 113.15-17 112.55-17 112.29-17.66 112.03-18.32 111.07-18.32L111.07-18.32Q108.47-18.32 106.43-13.72L106.43-13.72Q104.07-8.52 104.07-3.88L104.07-3.88Q104.07-1.44 105.07-1.44L105.07-1.44Q105.87-1.44 107.41-3.42 108.95-5.4 110.59-8.24L110.59-8.24Q112.83-12.16 114.55-15.4L114.55-15.4Q115.99-21.64 118.05-26.3 120.11-30.96 121.47-30.96L121.47-30.96Q122.15-30.96 122.15-30.28L122.15-30.28Q121.19-28.2 119.89-24.6 118.59-21 117.69-17.74 116.79-14.48 116.05-9.96 115.31-5.44 115.31-1.44L115.31-1.44Q115.31 4.52 117.91 4.52L117.91 4.52Q118.91 4.52 119.77 3.66 120.63 2.8 120.99 1.96L120.99 1.96Q121.19 1.52 121.71 1.72L121.71 1.72Q121.91 1.8 121.87 1.96L121.87 1.96Q121.63 2.48 121.27 3.16 120.91 3.84 119.85 4.84 118.79 5.84 117.71 5.84L117.71 5.84Q112.95 5.84 112.95-3.12L112.95-3.12Q112.95-6.28 113.51-9.88L113.51-9.88 112.99-9.88Q107.35 0 104.67 0ZM128.42-3.68L128.42-3.68Q128.42-1.28 129.7-1.28L129.7-1.28Q131.34-1.28 133.3-5.68L133.3-5.68Q135.58-10.72 135.58-15.12L135.58-15.12Q135.58-18.12 134.02-18.12 132.46-18.12 130.52-15.58 128.58-13.04 127.14-9.88 125.7-6.72 124.68-4.18 123.66-1.64 123.66-1.36L123.66-1.36Q123.66-0.76 123.06-0.76L123.06-0.76Q121.86-0.76 121.86-3.96L121.86-3.96Q121.86-10.32 123.14-16.74 124.42-23.16 126.18-27.02 127.94-30.88 129.46-30.88L129.46-30.88Q130.1-30.88 130.1-30.24L130.1-30.24Q127.98-25.56 126.44-19 124.9-12.44 124.14-6.56L124.14-6.56 124.42-6.56Q126.26-11.24 128.62-14.96L128.62-14.96Q129.94-17.04 131.44-18.26 132.94-19.48 134.34-19.48L134.34-19.48Q137.18-19.48 137.86-15.8L137.86-15.8Q138.1-14.72 138.1-13.52L138.1-13.52Q138.1-10.56 136.82-7.08L136.82-7.08Q135.02-2.12 132.1-0.56L132.1-0.56Q131.1 0 130.02 0L130.02 0Q127.3 0 127.3-3.6L127.3-3.6Q127.3-5.52 128.36-8.02 129.42-10.52 131.14-11.72L131.14-11.72Q131.5-11.92 131.74-11.56L131.74-11.56Q131.78-11.36 131.7-11.28L131.7-11.28Q130.18-10.08 129.3-7.76 128.42-5.44 128.42-3.68ZM141.9 12.52L141.9 12.52Q145.5 12.52 147.54 9.12L147.54 9.12Q149.3 6.12 150.26 1.64L150.26 1.64Q143.02 1.8 139.14 7.16L139.14 7.16Q138.9 7.52 138.38 7.28L138.38 7.28Q138.1 7.12 138.22 6.88L138.22 6.88Q139.94 4.28 143.02 2.46 146.1 0.64 150.5 0.48L150.5 0.48Q150.94-1.52 151.34-4.2 151.74-6.88 152.26-9.4L152.26-9.4 151.9-9.4Q146.7-0.16 143.98-0.16L143.98-0.16Q140.94-0.16 140.94-4.84 140.94-9.52 142.94-14.26 144.94-19 146.58-19.36L146.58-19.36 146.82-19.4Q147.5-19.4 147.5-18.52L147.5-18.52Q147.06-17.44 146.38-15.7 145.7-13.96 144.58-9.98 143.46-6 143.46-3.78 143.46-1.56 144.42-1.56L144.42-1.56Q145.54-1.56 148.02-5.44L148.02-5.44Q151.66-11.12 154.34-16.96L154.34-16.96Q155.5-19.4 156.82-19.4L156.82-19.4Q157.66-19.4 157.66-18.48L157.66-18.48Q156.9-17.08 155.82-13.24 154.74-9.4 154.06-5.5 153.38-1.6 152.9 0.6L152.9 0.6Q155.94 1.12 156.42 3.24L156.42 3.24Q156.5 3.6 156.5 4.22 156.5 4.84 156.02 5.3 155.54 5.76 155.18 5.76L155.18 5.76Q155.26 5.48 155.22 4.78 155.18 4.08 154.96 3.6 154.74 3.12 154.14 2.6 153.54 2.08 152.58 1.84L152.58 1.84Q149.5 13.44 141.9 13.44L141.9 13.44Q138.62 13.44 137.54 11.12L137.54 11.12Q137.5 11 137.5 10.92L137.5 10.92Q137.5 10.68 137.92 10.62 138.34 10.56 138.54 10.88L138.54 10.88Q139.26 12.52 141.9 12.52ZM169.86-19.4L169.86-19.4Q172.9-19.4 172.9-15.84L172.9-15.84Q172.9-13.8 171.54-11.56L171.54-11.56Q169.22-7.84 165.38-7.84L165.38-7.84Q164.78-7.84 164.38-8.04 163.98-8.24 163.78-8.64L163.78-8.64Q166.62-8.64 168.98-11.92L168.98-11.92Q170.9-14.56 170.9-16.76L170.9-16.76Q170.9-18.4 169.58-18.4L169.58-18.4Q166.94-18.4 164.66-14.28L164.66-14.28Q162.22-9.8 162.22-5.08L162.22-5.08Q162.22-1.08 164.5-0.28L164.5-0.28Q164.94-0.12 165.62-0.12 166.3-0.12 167.06-0.46 167.82-0.8 168.34-1.28L168.34-1.28Q169.38-2.24 170.06-3.4L170.06-3.4Q170.22-3.72 170.66-3.72L170.66-3.72Q171.38-3.72 171.34-3.48L171.34-3.48Q171.22-3.04 170.44-2 169.66-0.96 169-0.34 168.34 0.28 167.28 0.78 166.22 1.28 165.14 1.28L165.14 1.28Q160.9 1.28 159.74-2.72L159.74-2.72Q159.38-4.08 159.38-5.52L159.38-5.52Q159.38-8.2 160.62-11.36L160.62-11.36Q162.58-16.16 166.02-18.28L166.02-18.28Q167.9-19.4 169.86-19.4ZM180.86 5.84L180.86 5.84Q178.54 5.84 177.44 3.4 176.34 0.96 176.34-3.92 176.34-8.8 177.78-15.48 179.22-22.16 181.16-26.56 183.1-30.96 184.54-30.96L184.54-30.96Q185.22-30.96 185.22-30.16L185.22-30.16Q184.38-28.24 183.1-24.38 181.82-20.52 180.96-17.24 180.1-13.96 179.4-9.56 178.7-5.16 178.7-2.02 178.7 1.12 179.32 2.82 179.94 4.52 181.02 4.52L181.02 4.52Q181.94 4.52 182.78 3.66 183.62 2.8 183.98 1.96L183.98 1.96Q184.18 1.52 184.7 1.72L184.7 1.72Q184.9 1.8 184.8 2.06 184.7 2.32 184.48 2.72 184.26 3.12 183.7 3.96L183.7 3.96Q182.5 5.84 180.86 5.84ZM191.37 5.84L191.37 5.84Q189.05 5.84 187.95 3.4 186.85 0.96 186.85-3.92 186.85-8.8 188.29-15.48 189.73-22.16 191.67-26.56 193.61-30.96 195.05-30.96L195.05-30.96Q195.73-30.96 195.73-30.16L195.73-30.16Q194.89-28.24 193.61-24.38 192.33-20.52 191.47-17.24 190.61-13.96 189.91-9.56 189.21-5.16 189.21-2.02 189.21 1.12 189.83 2.82 190.45 4.52 191.53 4.52L191.53 4.52Q192.45 4.52 193.29 3.66 194.13 2.8 194.49 1.96L194.49 1.96Q194.69 1.52 195.21 1.72L195.21 1.72Q195.41 1.8 195.31 2.06 195.21 2.32 194.99 2.72 194.77 3.12 194.21 3.96L194.21 3.96Q193.01 5.84 191.37 5.84ZM199.37 0L199.37 0Q196.09 0 196.09-5.16L196.09-5.16Q196.09-8.24 197.61-11.92L197.61-11.92Q199.73-17.08 203.17-18.96L203.17-18.96Q204.65-19.76 205.93-19.76 207.21-19.76 207.95-19.2 208.69-18.64 208.89-18.08L208.89-18.08 209.13-17.56Q209.01-16.88 208.45-16.88L208.45-16.88Q207.81-16.88 207.71-17.18 207.61-17.48 207.49-17.7 207.37-17.92 206.93-18.3 206.49-18.68 205.93-18.68L205.93-18.68Q203.33-18.68 201.21-14L201.21-14Q198.81-8.6 198.81-3.84L198.81-3.84Q198.81-1.44 199.77-1.44L199.77-1.44Q200.53-1.44 201.91-3.14 203.29-4.84 204.81-7.4L204.81-7.4Q207.45-11.8 209.09-15.04L209.09-15.04Q210.45-17.92 211.89-17.92L211.89-17.92Q212.65-17.92 212.65-17L212.65-17Q212.29-16.24 211.73-14.84 211.17-13.44 210.25-9.28 209.33-5.12 209.33-1 209.33 3.12 210.57 3.12L210.57 3.12Q211.05 3.12 211.45 2.7 211.85 2.28 212.17 1.44L212.17 1.44Q212.29 1 212.73 1L212.73 1Q212.89 1 212.97 1.12 213.05 1.24 212.97 1.52 212.89 1.8 212.69 2.3 212.49 2.8 211.83 3.64 211.17 4.48 210.45 4.48L210.45 4.48Q208.77 4.48 207.87 2.28 206.97 0.08 206.97-2.92 206.97-5.92 207.41-8.68L207.41-8.68 207.01-8.68Q201.93 0 199.37 0Z" opacity="1" transform="matrix(1,0,0,1,0,0)" fill="#7a26c1" class="undefined-text-0" data-fill-palette-color="primary" id="text-0"></path></svg></g></svg></g></svg></g></svg></g><g transform="matrix(1,0,0,1,415.2016910875807,0)"><svg viewBox="0 0 115.217544701861 115.217544701861" height="115.217544701861" width="115.217544701861"><g data-palette-color="#a437db"><rect width="31.492795551842008" height="115.217544701861" fill="#a437db" stroke="transparent" data-fill-palette-color="accent" x="0" fill-opacity="1"></rect><rect width="31.492795551842008" height="115.217544701861" fill="#a437db" stroke="transparent" data-fill-palette-color="accent" x="38.40584823395367" fill-opacity="0.75"></rect><rect width="31.492795551842008" height="115.217544701861" fill="#a437db" stroke="transparent" data-fill-palette-color="accent" x="76.81169646790734" fill-opacity="0.5"></rect></g></svg></g></svg></g><defs></defs></svg><rect width="395.52" height="85.91476365417888" fill="none" stroke="none" visibility="hidden"></rect></g></svg></g></svg>