{
  "accessors": [
    {
      "bufferView": 1,
      "componentType": 5126,
      "count": 19482,
      "max": [
        50.93199920654297,
        -0.0,
        52.0
      ],
      "min": [
        -50.0,
        -3.3340001106262207,
        -49.0
      ],
      "type": "VEC3"
    },
    {
      "bufferView": 1,
      "byteOffset": 233784,
      "componentType": 5126,
      "count": 19482,
      "max": [
        1.0,
        1.0,
        1.0
      ],
      "min": [
        -1.0,
        -1.0,
        -1.0
      ],
      "type": "VEC3"
    },
    {
      "bufferView": 0,
      "componentType": 5125,
      "count": 70692,
      "type": "SCALAR"
    }
  ],
  "asset": {
    "extras": {
      "author": "eschooner2024 (https://sketchfab.com/eschooner2024)",
      "license": "CC-BY-4.0 (http://creativecommons.org/licenses/by/4.0/)",
      "source": "https://sketchfab.com/3d-models/graphic-designer-sprue-set-8bd767b609b44ead83f888c5dd8871f4",
      "title": "Graphic Designer S.P.R.U.E. Set"
    },
    "generator": "Sketchfab-14.13.0",
    "version": "2.0"
  },
  "bufferViews": [
    {
      "buffer": 0,
      "byteLength": 282768,
      "name": "floatBufferViews",
      "target": 34963
    },
    {
      "buffer": 0,
      "byteLength": 467568,
      "byteOffset": 282768,
      "byteStride": 12,
      "name": "floatBufferViews",
      "target": 34962
    }
  ],
  "buffers": [
    {
      "byteLength": 750336,
      "uri": "scene.bin"
    }
  ],
  "extensionsUsed": [
    "KHR_materials_clearcoat"
  ],
  "materials": [
    {
      "doubleSided": true,
      "extensions": {
        "KHR_materials_clearcoat": {
          "clearcoatFactor": 1.0,
          "clearcoatRoughnessFactor": 0.04
        }
      },
      "name": "color_15708628",
      "pbrMetallicRoughness": {
        "baseColorFactor": [
          0.6885573764301777,
          0.4398111879145395,
          0.5776405136760449,
          1.0
        ],
        "metallicFactor": 0.0
      }
    }
  ],
  "meshes": [
    {
      "name": "Object_0",
      "primitives": [
        {
          "attributes": {
            "NORMAL": 1,
            "POSITION": 0
          },
          "indices": 2,
          "material": 0,
          "mode": 4
        }
      ]
    }
  ],
  "nodes": [
    {
      "children": [
        1
      ],
      "matrix": [
        0.018743466585874557,
        0.0,
        0.0,
        0.0,
        0.0,
        7.176064897925756e-18,
        -0.018743466585874557,
        0.0,
        0.0,
        0.018743466585874557,
        7.176064897925756e-18,
        0.0,
        0.0,
        0.0,
        0.0,
        1.0
      ],
      "name": "Sketchfab_model"
    },
    {
      "children": [
        2
      ],
      "name": "tinker.obj.cleaner.materialmerger.gles"
    },
    {
      "mesh": 0,
      "name": "Object_2"
    }
  ],
  "scene": 0,
  "scenes": [
    {
      "name": "Sketchfab_Scene",
      "nodes": [
        0
      ]
    }
  ]
}
